<mxfile host="drawio-plugin" modified="2022-01-06T08:26:05.238Z" agent="5.0 (Windows NT 6.2; Win64; x64) AppleWebKit/537.36 (KHTML, like Gecko) Chrome/89.0.4389.114 Safari/537.36" etag="FqnVRTG7uaHAyPMiyGGG" version="15.5.4" type="embed"><diagram id="lQ0a94lmdzaRWGr032du" name="Page-1"><mxGraphModel dx="1058" dy="1634" grid="1" gridSize="10" guides="1" tooltips="1" connect="1" arrows="1" fold="1" page="1" pageScale="1" pageWidth="827" pageHeight="1169" math="0" shadow="0"><root><mxCell id="0"/><mxCell id="1" parent="0"/><mxCell id="cyPY-RiiTBD_quAvL_1w-2" value="" style="rounded=0;whiteSpace=wrap;html=1;direction=south;" parent="1" vertex="1"><mxGeometry x="80" y="-1080" width="620" height="1149" as="geometry"/></mxCell><mxCell id="cyPY-RiiTBD_quAvL_1w-3" value="&lt;font style=&quot;font-size: 24px&quot;&gt;&lt;b&gt;Bibliothéque&lt;/b&gt;&lt;/font&gt;" style="text;html=1;align=center;verticalAlign=middle;resizable=0;points=[];autosize=1;strokeColor=none;fillColor=none;" parent="1" vertex="1"><mxGeometry x="320" y="-1112" width="160" height="20" as="geometry"/></mxCell><mxCell id="BAWyOKDqcm1cY8Z2Vvxt-1" value="usager" style="shape=umlActor;verticalLabelPosition=bottom;verticalAlign=top;html=1;outlineConnect=0;" parent="1" vertex="1"><mxGeometry x="33" y="-860" width="30" height="60" as="geometry"/></mxCell><mxCell id="3aq6WHKHXTk7e97wV0Vl-1" value="Personnel" style="shape=umlActor;verticalLabelPosition=bottom;verticalAlign=top;html=1;" parent="1" vertex="1"><mxGeometry x="760" y="-1012" width="30" height="60" as="geometry"/></mxCell><mxCell id="3aq6WHKHXTk7e97wV0Vl-2" value="bénévole" style="shape=umlActor;verticalLabelPosition=bottom;verticalAlign=top;html=1;" parent="1" vertex="1"><mxGeometry x="760" y="-800" width="30" height="60" as="geometry"/></mxCell><mxCell id="3aq6WHKHXTk7e97wV0Vl-21" value="inscrit" style="endArrow=open;endSize=12;dashed=1;html=1;rounded=0;exitX=0.367;exitY=0.3;exitDx=0;exitDy=0;exitPerimeter=0;" parent="1" source="3aq6WHKHXTk7e97wV0Vl-1" target="pSuiWLKc2Pd21CItgWu_-3" edge="1"><mxGeometry width="160" relative="1" as="geometry"><mxPoint x="710" y="-990" as="sourcePoint"/><mxPoint x="534" y="-918.3500620277433" as="targetPoint"/></mxGeometry></mxCell><mxCell id="3aq6WHKHXTk7e97wV0Vl-22" value="creer une carte" style="endArrow=open;endSize=12;dashed=1;html=1;rounded=0;" parent="1" source="pSuiWLKc2Pd21CItgWu_-3" target="pSuiWLKc2Pd21CItgWu_-2" edge="1"><mxGeometry width="160" relative="1" as="geometry"><mxPoint x="536.04" y="-926.68" as="sourcePoint"/><mxPoint x="479.9545136459062" y="-1011" as="targetPoint"/></mxGeometry></mxCell><mxCell id="3aq6WHKHXTk7e97wV0Vl-25" value="" style="endArrow=open;endSize=12;dashed=1;html=1;rounded=0;entryX=0;entryY=1;entryDx=0;entryDy=0;" parent="1" edge="1" target="pSuiWLKc2Pd21CItgWu_-1"><mxGeometry width="160" relative="1" as="geometry"><mxPoint x="58" y="-810" as="sourcePoint"/><mxPoint x="248.55844155844147" y="-1011" as="targetPoint"/></mxGeometry></mxCell><mxCell id="3aq6WHKHXTk7e97wV0Vl-34" value="creer une fiche" style="endArrow=open;endSize=12;dashed=1;html=1;rounded=0;exitX=0.6;exitY=0.283;exitDx=0;exitDy=0;exitPerimeter=0;" parent="1" source="3aq6WHKHXTk7e97wV0Vl-1" target="pSuiWLKc2Pd21CItgWu_-8" edge="1"><mxGeometry width="160" relative="1" as="geometry"><mxPoint x="330" y="-760" as="sourcePoint"/><mxPoint x="490" y="-760" as="targetPoint"/><Array as="points"><mxPoint x="600" y="-770"/><mxPoint x="570" y="-730"/></Array></mxGeometry></mxCell><mxCell id="-gihN05Qc6N_xUoZX9xH-1" value="" style="endArrow=open;endFill=1;endSize=12;html=1;rounded=0;fillColor=#d5e8d4;strokeColor=#82b366;" parent="1" source="3aq6WHKHXTk7e97wV0Vl-1" target="3aq6WHKHXTk7e97wV0Vl-2" edge="1"><mxGeometry width="160" relative="1" as="geometry"><mxPoint x="740" y="-750.5" as="sourcePoint"/><mxPoint x="930" y="-760" as="targetPoint"/></mxGeometry></mxCell><mxCell id="pSuiWLKc2Pd21CItgWu_-1" value="Rechercher une ressource" style="ellipse;whiteSpace=wrap;html=1;" parent="1" vertex="1"><mxGeometry x="200" y="-1050" width="120" height="80" as="geometry"/></mxCell><mxCell id="pSuiWLKc2Pd21CItgWu_-2" value="carte" style="ellipse;whiteSpace=wrap;html=1;" parent="1" vertex="1"><mxGeometry x="440" y="-1060" width="120" height="80" as="geometry"/></mxCell><mxCell id="pSuiWLKc2Pd21CItgWu_-3" value="inscription" style="ellipse;whiteSpace=wrap;html=1;" parent="1" vertex="1"><mxGeometry x="440" y="-860" width="120" height="80" as="geometry"/></mxCell><mxCell id="pSuiWLKc2Pd21CItgWu_-8" value="Gerer un emprunt&lt;br&gt;&amp;nbsp;pour une resource et un usager" style="ellipse;whiteSpace=wrap;html=1;fontStyle=1" parent="1" vertex="1"><mxGeometry x="230" y="-790" width="120" height="80" as="geometry"/></mxCell></root></mxGraphModel></diagram></mxfile>